<?xml version="1.0" encoding="utf-8"?>
<!-- Generator: Adobe Illustrator 23.0.6, SVG Export Plug-In . SVG Version: 6.00 Build 0)  -->
<svg version="1.1" id="Layer_1" xmlns="http://www.w3.org/2000/svg" xmlns:xlink="http://www.w3.org/1999/xlink" x="0px" y="0px"
	 viewBox="0 0 512 564.9" style="enable-background:new 0 0 512 564.9;" xml:space="preserve">
<style type="text/css">
	.st0{fill:#FFFFFF;}
	.st1{font-family:'MyriadPro-Regular';}
	.st2{font-size:181.9525px;}
	.st3{font-size:88px;}
	
</style>
<g id="Number_Text">
	<text transform="matrix(1 0 0 1 243.3615 258.9974)" class="st0 st1 st2">0</text>
</g>
<g>
	<g>
		<g>
			<g>
				<path class="st0" d="M854.2-22.8c-17.5-12-36.1-13.4-54.3-4.6L739.4,1l-1.8,1.1l-37.4-19.6c-15.6-10.4-33.5-15.9-52-15.9l0,0
					l-31.6,0.9c-4.5,0.1-8.5,3.1-9.9,7.4c-1.4,4.3,0.1,9,3.8,11.8l66.4,49.8l-52.3,27.2c-6.5-0.6-25.2-5.2-34.5-7.5
					c-12-2.9-13.9-3.3-16-3.3h-21.3c-4.5,0-8.5,2.8-10,7.1c-1.5,4.2-0.2,9,3.3,11.8c9.5,7.8,58.5,46.6,85.4,46.6
					c4.6,0,8.6-1,11.5-2.7L854.3,8.2c4.9-3.5,7.9-9.3,7.8-15.5C862.2-13.6,859.2-19.3,854.2-22.8z"/>
				<path class="st0" d="M480,394.2h-53.3v-32c0-5.9-4.8-10.7-10.7-10.7H288c-5.9,0-10.7,4.8-10.7,10.7v32H170.7v-160
					c0-5.9-4.8-10.7-10.7-10.7h-6.5l16.6-50c0.4-1.1,0.6-2.2,0.6-3.4v-42.7c0-5.9-4.8-10.7-10.7-10.7h-53.3V63.5
					c0-5.9-4.8-10.7-10.7-10.7s-10.7,4.8-10.7,10.7v53.3H32c-5.9,0-10.7,4.8-10.7,10.7v42.7c0,1.2,0.2,2.3,0.6,3.4l16.6,50H32
					c-5.9,0-10.7,4.8-10.7,10.7v160H10.7C4.8,394.2,0,399,0,404.9v149.3c0,5.9,4.8,10.7,10.7,10.7h352V447.5
					c0-5.9,4.8-10.7,10.7-10.7h64c5.9,0,10.7,4.8,10.7,10.7v117.3h32c5.9,0,10.7-4.8,10.7-10.7V404.9
					C490.7,399,485.9,394.2,480,394.2z M106.7,490.2c0,5.9-4.8,10.7-10.7,10.7H53.3c-5.9,0-10.7-4.8-10.7-10.7v-42.7
					c0-5.9,4.8-10.7,10.7-10.7H96c5.9,0,10.7,4.8,10.7,10.7V490.2z M128,319.5c0,5.9-4.8,10.7-10.7,10.7H74.7
					c-5.9,0-10.7-4.8-10.7-10.7v-42.7c0-5.9,4.8-10.7,10.7-10.7h42.7c5.9,0,10.7,4.8,10.7,10.7L128,319.5L128,319.5z M117.3,180.9
					H74.7c-5.9,0-10.7-4.8-10.7-10.7s4.8-10.7,10.7-10.7h42.7c5.9,0,10.7,4.8,10.7,10.7S123.2,180.9,117.3,180.9z M213.3,490.2
					c0,5.9-4.8,10.7-10.7,10.7H160c-5.9,0-10.7-4.8-10.7-10.7v-42.7c0-5.9,4.8-10.7,10.7-10.7h42.7c5.9,0,10.7,4.8,10.7,10.7
					L213.3,490.2L213.3,490.2z M320,490.2c0,5.9-4.8,10.7-10.7,10.7h-42.7c-5.9,0-10.7-4.8-10.7-10.7v-42.7
					c0-5.9,4.8-10.7,10.7-10.7h42.7c5.9,0,10.7,4.8,10.7,10.7V490.2z"/>
			</g>
		</g>
	</g>
</g>
<g id="Layer_3">
	<text transform="matrix(1 0 0 1 135.0863 74.012)" class="st0 st1 st3">KOWD</text>
</g>
</svg>

