<?xml version="1.0" encoding="utf-8"?>
<!-- Generator: Adobe Illustrator 23.0.3, SVG Export Plug-In . SVG Version: 6.00 Build 0)  -->
<svg version="1.1" id="Layer_1" xmlns="http://www.w3.org/2000/svg" xmlns:xlink="http://www.w3.org/1999/xlink" x="0px" y="0px"
	 viewBox="0 0 320 320" style="enable-background:new 0 0 320 320;" xml:space="preserve">
<style type="text/css">
	.st0{fill:#FFFFFF;}
</style>
<g transform="matrix(1,0,0,-1,0,64)">
	<path class="st0" d="M160-205.5l2,4l1.5,5H187v1l-23,0.5l0.5,3h3l3,1l1.5,2l1,3.5l2,21.5l0.5,15h56l79,4l3,2l1.5,4v25l-83.5,10.5
		H175l-10,81l41,8l2.5,1.5l0.5,2.5V4l-1,2l-2,1l-39.5,5.5l-5-12.5L161,25l-1,0.5l-1-0.5l-0.5-25l-5,12.5L114,7l-2-1l-1-2v-14.5
		l0.5-2.5l2.5-1.5l41-8l-10-81H88.5L5-114v-25l1.5-4l3-2l79-4h56l0.5-15l2-21.5l1-3.5l1.5-2l3-1h3l0.5-3l-23.5-0.5v-1h24l1.5-5
		L160-205.5z"/>
</g>
</svg>
