<svg width="195" height="184" xmlns="http://www.w3.org/2000/svg" xmlns:xlink="http://www.w3.org/1999/xlink"><defs><path id="a" d="M0 .231h194.531v105.8982H0z"/><path id="c" d="M.0586.6183H.531v1H.0586z"/><path id="d" d="M.385.6833h44.5911908V30H.385z"/></defs><g fill="none" fill-rule="evenodd"><path d="M81.144 62.567c-.576-.434-3.528-1.154-8.807-1.154-2.717 0-5.267.211-7.004.569.11.392.198.8.262 1.222 1.727.326 4.157.518 6.742.518 5.279 0 8.231-.721 8.807-1.155" fill="#FFF"/><path d="M65.3335 61.982c1.737-.358 4.287-.569 7.004-.569 5.278 0 8.23.72 8.807 1.154-.577.434-3.528 1.155-8.807 1.155-2.585 0-5.016-.192-6.742-.518.051.337.087.681.106 1.033 1.768.307 4.137.485 6.636.485 1.01 0 9.871-.061 9.871-2.155s-8.861-2.154-9.871-2.154c-2.842 0-5.519.229-7.328.616.122.306.231.622.324.953" fill="#837E74"/><path d="M39.7744 62.567c.576.434 3.528 1.155 8.807 1.155 2.585 0 5.016-.191 6.742-.518.064-.421.152-.829.262-1.221-1.737-.359-4.286-.57-7.004-.57-5.279 0-8.231.72-8.807 1.154" fill="#FFF"/><path d="M55.3232 63.2037c-1.726.327-4.157.518-6.742.518-5.279 0-8.231-.721-8.807-1.155.576-.434 3.528-1.154 8.807-1.154 2.718 0 5.267.211 7.004.57.092-.331.202-.648.324-.953-1.809-.388-4.486-.617-7.328-.617-1.01 0-9.871.061-9.871 2.154 0 2.095 8.861 2.155 9.871 2.155 2.499 0 4.867-.178 6.636-.484.02-.352.055-.697.106-1.034" fill="#837E74"/><path d="M58.9805 108.9405h1.958c2.532 0 4.589-1.998 4.724-4.496l-11.381.252c.257 2.378 2.253 4.244 4.699 4.244M65.4629 65.3668h-10.006c-1.869.639-3.226 2.394-3.226 4.476v9.829c5.798-1.204 11.381-2.364 16.269-3.38l.188-6.464c0-2.07-1.356-3.822-3.225-4.461M54.0962 103.6788l.003.013 11.79-.238.006-.02z" fill="#FFF"/><path fill="#837E74" d="M65.895 103.4342l-.006.02 1.052-.021.006-.02zM65.7236 65.3668h-.261c1.869.639 3.225 2.391 3.225 4.461l-.188 6.464c.34-.071.67-.139 1.003-.208l.185-6.241c0-2.553-1.673-4.721-3.981-5.469.007.164.017.327.017.493v.5zM53.085 103.6998l.003.012 1.012-.02-.004-.013zM65.6626 104.4444c-.135 2.499-2.192 4.496-4.724 4.496h-1.958c-2.446 0-4.442-1.866-4.699-4.244l-1.022.022c.268 2.924 2.729 5.222 5.721 5.222h1.958c3.092 0 5.617-2.455 5.739-5.518l-1.015.022zM52.231 79.672v-9.829c0-2.083 1.356-3.837 3.226-4.476h-.262v-.5c0-.166.01-.329.017-.492-2.307.748-3.981 2.915-3.981 5.468V79.88c.334-.07.667-.139 1-.208"/><path d="M60.4595 58.2017c-2.244 0-4.088 2.723-4.253 6.165h8.505c-.164-3.442-2.008-6.165-4.252-6.165" fill="#FFF"/><path d="M60.4595 58.2017c2.244 0 4.088 2.723 4.252 6.165h-8.505c.165-3.442 2.009-6.165 4.253-6.165zm-5.265 7.165h10.529v-.5c0-.166-.01-.329-.017-.493-.002-.045-.002-.091-.005-.136-.019-.352-.055-.697-.106-1.034-.065-.421-.152-.83-.262-1.222-.093-.33-.202-.647-.324-.952-.912-2.285-2.608-3.828-4.55-3.828-1.942 0-3.638 1.543-4.55 3.828-.122.305-.232.622-.325.953-.109.392-.197.8-.261 1.221-.051.337-.087.682-.107 1.034-.002.045-.003.091-.005.137-.007.163-.017.326-.017.492v.5z" fill="#837E74"/><path d="M154.7275 62.567c-.576-.434-3.528-1.154-8.807-1.154-2.717 0-5.267.211-7.004.569.11.392.198.8.262 1.222 1.726.327 4.158.518 6.742.518 5.279 0 8.231-.721 8.807-1.155" fill="#FFF"/><path d="M138.917 61.982c1.737-.358 4.287-.569 7.004-.569 5.278 0 8.23.72 8.807 1.154-.577.434-3.528 1.155-8.807 1.155-2.585 0-5.016-.191-6.742-.518.051.337.086.682.106 1.033 1.768.307 4.137.485 6.636.485 1.01 0 9.871-.061 9.871-2.155s-8.861-2.154-9.871-2.154c-2.841 0-5.519.229-7.328.616.122.306.231.622.324.953" fill="#837E74"/><path d="M113.3579 62.567c.576.434 3.528 1.155 8.807 1.155 2.584 0 5.015-.191 6.742-.518.064-.421.152-.829.262-1.221-1.737-.359-4.287-.57-7.004-.57-5.279 0-8.231.72-8.807 1.154" fill="#FFF"/><path d="M128.9067 63.2037c-1.727.327-4.158.518-6.742.518-5.279 0-8.231-.721-8.807-1.155.576-.434 3.528-1.154 8.807-1.154 2.718 0 5.267.211 7.004.57.092-.331.202-.648.324-.953-1.81-.388-4.486-.617-7.328-.617-1.01 0-9.871.061-9.871 2.154 0 2.095 8.861 2.155 9.871 2.155 2.499 0 4.867-.178 6.636-.484.019-.352.054-.697.106-1.034" fill="#837E74"/><path fill="#FFF" d="M140.4351 100.2808l-13.849-.759zM132.564 108.9405h1.958c2.52 0 4.567-1.979 4.72-4.46l-11.428-.294v.004c0 2.619 2.131 4.75 4.75 4.75M139.0464 65.3668h-10.007c-1.869.639-3.225 2.394-3.225 4.476v6.404c4.851 1.008 10.4 2.161 16.172 3.36l.285-9.779c0-2.07-1.356-3.822-3.225-4.461"/><path d="M139.3071 65.3668h-.261c1.869.639 3.225 2.391 3.225 4.461l-.284 9.779c.329.069.657.137.988.205l.296-9.969c0-2.553-1.674-4.721-3.981-5.469.007.164.017.327.017.493v.5zM126.5864 99.5221l-1.032-.057zM139.2417 104.4801c-.152 2.482-2.2 4.46-4.72 4.46h-1.958c-2.618 0-4.749-2.13-4.749-4.749l-.001-.004-1.024-.026.025.096c.036 3.14 2.601 5.683 5.749 5.683h1.958c3.064 0 5.569-2.411 5.734-5.434l-1.014-.026zM141.4634 100.3375l-1.028-.057zM125.814 76.2467v-6.404c0-2.082 1.356-3.837 3.226-4.476h-.262v-.5c0-.166.011-.329.017-.493-2.307.748-3.981 2.916-3.981 5.469v6.196c.331.069.663.138 1 .208" fill="#837E74"/><path d="M134.0425 58.2017c-2.244 0-4.088 2.723-4.252 6.165h8.505c-.165-3.442-2.009-6.165-4.253-6.165" fill="#FFF"/><path d="M134.0425 58.2017c2.244 0 4.088 2.723 4.253 6.165h-8.505c.164-3.442 2.008-6.165 4.252-6.165zm-5.264 7.165H139.3075v-.5c0-.166-.01-.329-.017-.493-.002-.045-.003-.091-.005-.136-.02-.352-.056-.697-.107-1.034-.064-.421-.152-.83-.261-1.222-.093-.33-.203-.647-.325-.952-.912-2.285-2.608-3.828-4.55-3.828-1.942 0-3.638 1.543-4.55 3.828-.122.305-.231.622-.324.953-.11.392-.197.8-.262 1.221-.051.337-.087.682-.106 1.034-.003.045-.003.091-.005.136-.007.164-.017.327-.017.493v.5z" fill="#837E74"/><path d="M141.4634 100.3375l-1.028-.057-13.849-.758-1.032-.057-14.386-.788v4.138l7.698.198c.495.007.847.015.984.025l42.883 1.103-.074-2.643-21.196-1.161zM107.0469 106.5025h.343c-.204 0-.385.132-.449.326l.106-.326zm1.014 13.063c.054-1.293.159-8.213.222-12.624-.058-.304-.097-.439-.097-.439.079-1.922.125-3.205.128-3.278V53.4645c-.212.299-.467.5-.772.552-.056.009-.111.014-.164.014-.587 0-1.081-.559-1.473-1.667-.525-1.497-.658-2.377-.736-2.902-.024-.154-.041-.275-.065-.37-.14-.578-.124-1.623.49-2.161.51-.434 2.02-2.112 2.163-2.48.161-.413.368-.567.557-.608v-.482c-.069.107-.141.214-.224.32-.676.888-1.59 1.784-2.082 2.135-.296.21-.636.322-.956.322-.109 0-.217-.013-.32-.04-.322-.085-.58-.302-.725-.61-.618-1.296-2.357-3.588-4.942-3.946-1.244-.153-1.431-1.038-1.431-1.551v-6.811c0-.513.18-.937.506-1.196.23-.181.641-.365 1.302-.207 4.72 1.116 7.649 2.824 8.872 5.18v-7.562c0-10.719-5.123-28.451-10.961-28.451h-.175c-5.838 0-10.961 17.732-10.961 28.451v7.453c1.255-2.299 4.163-3.972 8.81-5.072.665-.156 1.079.028 1.31.21.326.259.506.683.506 1.194v6.811c0 .513-.188 1.398-1.445 1.552-2.581.357-4.319 2.649-4.937 3.947-.144.306-.401.523-.723.608-.103.027-.211.04-.321.04-.319 0-.659-.112-.954-.32-.486-.35-1.395-1.245-2.083-2.139-.06-.078-.11-.157-.163-.236v.415c.17.061.351.225.494.593.149.369 1.659 2.05 2.159 2.477.62.537.634 1.61.497 2.16-.021.087-.036.199-.057.342-.077.527-.207 1.407-.745 2.934-.391 1.108-.884 1.667-1.47 1.667-.054 0-.109-.005-.164-.014-.277-.047-.514-.218-.714-.473v49.682c.002.072.048 1.355.127 3.277v5.415c.054 3.426.112 6.755.147 7.634.001.011.002.02.003.03 1.276 12.375 4.112 21.457 8.245 35.266.226-.101.434-.194.632-.282-.067-1.396-.138-2.862-.212-4.351-.347-7.065-.741-15.072-.741-18.928 0-1.929.685-9.089 1.348-16.014.573-5.997 1.115-11.661 1.115-12.954h.945c0 1.285.525 6.862 1.08 12.765.645 6.845 1.311 13.923 1.311 15.855 0 3.557-.437 14.911-.757 23.202-.006.159-.012.315-.018.472.118.053.244.109.372.166.225-.725.452-1.459.678-2.192 3.766-12.571 6.365-21.328 7.569-33.021zM192.3306 102.1207l-.497-.032c-.002 0-.003.001-.005.001l-10.114-.617-16.212 2.739 28.085.718v-5.155l-.837-.167-.42.072v2.441zM7.3267 101.795l-4.921.348v-.036l-.206.014v-.981l-1.255-1.274v5.063l29.866-.762.111-3.87z" fill="#FFF"/><path d="M3.2295 90.7828c-.845.144-2.276.946-2.276 3.044v4.457l2.396.064v2.753l3.914-.248 24.625-1.742v1.125l-.021.002-.009.314 51.909-2.845c.13-.007.256.04.351.129.094.089.147.213.147.343v4.622l1.007-.026v-29.005c-7.815 1.625-80.857 16.811-82.043 17.013M109.2803 102.7755l.944.023v-4.62c0-.13.053-.254.147-.342.094-.09.223-.136.351-.129l51.91 2.844-.019-.674c-.001-.058.012-.114.031-.167v-.514l23.517 1.525 5.021-.848v-1.526l2.394-.064v-4.457c0-2.098-1.429-2.901-2.275-3.044-1.187-.201-74.229-15.388-82.044-17.013v29.006h.023z" fill="#FFF"/><path fill="#FFF" d="M54.0962 103.6788l11.799-.245 1.052-.021 16.374-.34v-4.395l-47.077 2.579-4.413.242-.075 2.643 21.329-.442z"/><g transform="translate(0 -.231)"><mask id="b" fill="#fff"><use xlink:href="#a"/></mask><path d="M83.5088 103.9952c-.056-.194-.116-.371-.181-.53-.002-.006-.004-.011-.006-.016-.001-.001-.001-.003-.002-.004h.002v-.112l-16.381.33-1.052.021-11.789.238-1.012.021-21.332.43-.013.469-.944-.027.012-.418-29.866.763v-5.063l-.076-.077-.304.061-.093-.463-.092-.463 2.2-.439c.138-.027.283.008.391.098.11.09.173.224.173.366v2.669h-.944v.502l.205-.013v.036l4.922-.348 23.595-1.498.012-.447.944.027-.01.36.02-.001v-1.126l-24.625 1.743-3.913.248v-2.754l-2.397-.063v-4.458c0-2.097 1.431-2.9 2.277-3.043 1.186-.202 74.228-15.389 82.043-17.014v-.58h.944v-19.646c-.569-.729-.832-2.166-.832-3.551v-4.945c0-.359 0-1.106.552-1.209.083-.016.18-.015.28.02v-.416c-.613-.91-.725-1.885-.725-3.696 0-1.061.247-2.024.725-2.899v-7.453c0-10.718 5.124-28.45 10.961-28.45h.175c5.838 0 10.961 17.732 10.961 28.45v7.562c.439.846.663 1.773.663 2.79 0 1.758-.101 2.729-.663 3.614v.482c.078-.017.153-.017.221-.004.555.104.555.878.555 1.209v4.945c0 1.337-.247 2.722-.776 3.472v19.725h.944v.58c7.815 1.625 80.857 16.812 82.044 17.014.845.143 2.275.945 2.275 3.043v4.458l-2.395.063v1.526l.204-.034v-1.031c0-.147.068-.285.184-.374.116-.089.267-.12.408-.083l2.201.579-.12.457-.12.457-1.01-.266-.178.03.837.167v5.154l-28.085-.717-1.815.306.002.066-.944.027-.013-.47-42.883-1.103-.983-.025-7.698-.198v.314c-.015.033-.028.071-.042.105h.098c-.064.156-.122.332-.178.522l15.743.404 1.024.026 11.428.294 1.014.026 54.276 1.392-.011-12.072c0-2.374-1.587-3.724-3.061-3.975-.675-.114-26.043-5.378-48.485-10.039-.331-.069-.659-.137-.988-.205-5.772-1.199-11.321-2.352-16.173-3.361-.337-.069-.669-.139-1-.207-8.067-1.677-14.032-2.917-15.556-3.234v-43.411c0-10.325-4.91-29.395-11.905-29.395h-.175c-6.996 0-11.905 19.07-11.905 29.395v43.411c-1.538.32-7.595 1.579-15.77 3.278-.333.069-.663.138-1.003.208-4.887 1.016-10.471 2.176-16.269 3.381-.333.069-.666.138-1 .207-22.361 4.645-47.488 9.859-48.159 9.972-1.475.251-3.063 1.601-3.063 3.975l-.009 12.072 53.26-1.179 1.022-.023 11.381-.252 1.015-.022 18.616-.413c-.001-.151-.003-.254-.004-.29l-1.781.045z" fill="#837E74" mask="url(#b)"/></g><path d="M99.814 154.7789c.006.002.013.006.019.008.223-.748.442-1.479.659-2.2-.226.733-.453 1.467-.678 2.192M192.3306 99.6793h-.001v1.939c0 .13-.054.255-.148.344-.094.088-.217.137-.348.127l.497.031v-2.441zM108.3135 103.2247c-.002.073-.048 1.355-.128 3.278h.104c.027-1.874.045-3.198.046-3.269h-.022v-.009zM109.2573 103.234h.023v-.458l-.023-.001zM109.2632 103.7193l1.682.043c.001 0 .001-.001.001-.001l-1.683-.042zM86.4937 119.5816c-.001-.005-.001-.01-.002-.016h-1.093c.598 12.383 6.979 30.849 8.471 35.669.307-.136.6-.267.869-.387-4.133-13.809-6.969-22.891-8.245-35.266M163.1147 99.3927l22.713 1.385.333-.056-23.517-1.525v.514c.024-.069.06-.134.114-.186.095-.092.224-.141.357-.132" fill="#837E74"/><path d="M86.4912 119.5518c-.036-.879-.094-4.208-.147-7.635-.066-4.252-.126-8.652-.127-8.692v.009h-.945v-.459l-1.007.026v.433h-.938c.065.159.125.337.182.53l1.78-.045c.002.037.003.139.005.291.021 2.093.056 14.383.105 15.556h1.092v-.014M103.5151 142.523c-.061.214.037.442.234.546.07.037.145.054.22.054.136 0 .27-.059.362-.169l-1.417 1.697.211-.749.39-1.379zm4.546-22.957c-1.205 11.693-3.803 20.449-7.569 33.02-.217.722-.436 1.453-.66 2.201.265.118.548.244.85.38.006.002.014.005.02.008 1.523-4.905 7.856-23.274 8.452-35.609h-1.093zM111.1265 103.234H110.2245v-.435l-.944-.024v.459H108.3355c-.001.071-.019 1.395-.046 3.269-.002.143-.004.29-.006.439-.064 4.41-.169 11.33-.222 12.624h1.092c.052-1.258.09-15.3.11-15.847l1.682.043.098.002c.001-.003.002-.005.003-.008.056-.19.115-.365.179-.522h-.099zM83.3198 103.2144c0 .001.001.002.001.003v-.003h-.001z" fill="#837E74"/><path d="M98.5767 152.5299c.312-8.086.696-18.272.696-21.592 0-1.887-.694-9.261-1.306-15.766-.221-2.342-.437-4.633-.617-6.629-.188 2.047-.413 4.406-.644 6.82-.63 6.581-1.343 14.04-1.343 15.924 0 3.832.393 11.827.739 18.882.037.748.074 1.491.11 2.222.148-.276.321-.491.526-.626.181-.123.385-.188.615-.188.511 0 .913.305 1.224.953" fill="#FFF"/><path d="M100.2173 130.9381c0-1.932-.667-9.009-1.311-15.854-.556-5.904-1.081-11.48-1.081-12.765h-.944c0 1.293-.542 6.957-1.116 12.953-.662 6.925-1.347 14.086-1.347 16.015 0 3.855.394 11.863.741 18.928.073 1.489.145 2.955.212 4.35.09-.04.182-.081.266-.119.126-.865.31-1.565.574-2.055-.036-.731-.072-1.474-.109-2.223-.347-7.054-.74-15.049-.74-18.881 0-1.884.713-9.344 1.343-15.925.231-2.413.457-4.773.645-6.82.179 1.997.395 4.288.616 6.63.612 6.505 1.307 13.879 1.307 15.766 0 3.319-.385 13.506-.697 21.592.221.46.395 1.097.527 1.932.108.048.22.098.338.151.006-.158.012-.313.018-.473.321-8.291.758-19.645.758-23.202" fill="#837E74"/><path d="M99.2241 32.6949c-.068-.016-.166-.034-.261-.034-.089 0-.176.016-.238.064-.093.074-.147.24-.147.455v6.811c0 .408.148.558.61.615 3.679.508 5.479 4.072 5.672 4.478.032.068.068.089.113.1.106.028.298-.003.488-.137.424-.304 1.283-1.158 1.881-1.942.549-.705.691-1.395.691-3.359 0-3.39-2.799-5.63-8.809-7.051" fill="#FFF"/><path d="M107.3423 43.1046c-.598.785-1.457 1.638-1.881 1.942-.19.134-.382.165-.489.138-.044-.012-.08-.033-.112-.101-.193-.405-1.994-3.969-5.672-4.478-.462-.057-.61-.207-.61-.615v-6.811c0-.215.054-.381.147-.455.061-.048.149-.064.238-.064.095 0 .192.018.261.034 6.01 1.421 8.808 3.661 8.808 7.052 0 1.963-.141 2.653-.69 3.358m-7.9-11.328c-.661-.158-1.073.026-1.302.207-.327.259-.506.683-.506 1.196v6.811c0 .513.187 1.398 1.431 1.551 2.585.358 4.323 2.65 4.942 3.946.145.308.402.525.725.61.103.027.21.04.32.04.319 0 .659-.112.956-.322.491-.351 1.405-1.247 2.082-2.135.083-.106.155-.213.223-.32.562-.885.664-1.856.664-3.614 0-1.017-.225-1.944-.664-2.79-1.222-2.356-4.151-4.064-8.871-5.18" fill="#837E74"/><path d="M106.2109 47.6451c-.243.213-.277.864-.191 1.217.029.114.053.264.082.459.074.492.197 1.317.693 2.729.334.944.599 1.035.602 1.036.194-.063.749-1.109.749-3.094v-4.445c-.632.806-1.645 1.851-1.935 2.098" fill="#FFF"/><path d="M108.1455 49.9923c0 1.985-.554 3.031-.749 3.094-.002-.001-.268-.093-.601-1.036-.496-1.412-.62-2.237-.693-2.729-.03-.195-.054-.346-.083-.459-.085-.353-.052-1.004.191-1.217.29-.247 1.304-1.292 1.935-2.098v4.445zm-.388-5.542c-.144.368-1.654 2.046-2.164 2.48-.614.538-.63 1.583-.49 2.162.024.094.042.215.065.369.079.526.211 1.405.736 2.903.392 1.107.886 1.667 1.473 1.667.054 0 .109-.005.164-.015.306-.052.561-.253.772-.552.53-.75.776-2.135.776-3.472v-4.945c0-.331 0-1.105-.555-1.209-.067-.013-.143-.013-.221.004-.189.041-.396.195-.556.608z" fill="#837E74"/><path d="M89.0117 45.0489c.186.132.378.163.485.135.044-.011.079-.032.11-.098.194-.407 1.992-3.971 5.669-4.479.473-.059.623-.208.623-.616v-6.811c0-.214-.054-.379-.148-.453-.063-.05-.153-.066-.244-.066-.096 0-.194.018-.263.034-6.009 1.421-8.807 3.662-8.807 7.051 0 1.959.142 2.649.691 3.355.608.791 1.464 1.645 1.884 1.948" fill="#FFF"/><path d="M95.2441 32.6949c.069-.016.167-.034.262-.034.092 0 .182.016.244.066.095.074.149.239.149.453v6.811c0 .408-.151.557-.623.616-3.677.508-5.475 4.072-5.669 4.479-.031.066-.067.087-.111.098-.106.028-.298-.003-.484-.135-.42-.303-1.276-1.157-1.885-1.948-.549-.706-.691-1.396-.691-3.355 0-3.389 2.799-5.63 8.808-7.051m-6.781 13.123c.295.208.635.319.953.319.111 0 .219-.012.322-.04.321-.085.579-.301.722-.607.619-1.298 2.357-3.59 4.938-3.947 1.257-.155 1.445-1.039 1.445-1.552v-6.811c0-.511-.18-.936-.507-1.194-.23-.182-.645-.367-1.309-.21-4.647 1.099-7.555 2.773-8.81 5.071-.478.876-.725 1.839-.725 2.899 0 1.811.111 2.786.725 3.697.052.078.103.157.163.235.688.895 1.597 1.789 2.083 2.14" fill="#837E74"/><path d="M87.0923 53.0865c-.004-.005.256-.113.582-1.037.508-1.44.629-2.264.701-2.757.026-.177.048-.317.074-.429.088-.355.055-1.004-.195-1.221-.285-.243-1.292-1.283-1.925-2.089v4.439c0 1.98.552 3.029.763 3.094" fill="#FFF"/><path d="M86.3296 45.5538c.633.806 1.64 1.846 1.924 2.088.251.218.284.867.196 1.222-.027.112-.048.252-.074.429-.072.492-.193 1.317-.701 2.757-.326.924-.586 1.032-.582 1.037-.211-.066-.763-1.114-.763-3.095v-4.438zm.766 8.477c.585 0 1.079-.56 1.469-1.667.538-1.527.668-2.408.745-2.934.021-.143.037-.255.058-.342.136-.55.122-1.623-.497-2.16-.5-.428-2.011-2.108-2.16-2.477-.143-.368-.323-.532-.494-.593-.1-.035-.197-.035-.28-.02-.551.104-.551.85-.551 1.209v4.945c0 1.386.262 2.823.831 3.551.2.256.437.427.715.474.055.009.109.014.164.014zM98.3872 180.0035h.017v-.471c0 .029-.012.055-.017.083v.388zM108.3135 103.2247v.009H109.2575V73.1887h-.944v.385zM86.2168 73.189h-.944V103.234h.944V73.573z" fill="#837E74"/><path d="M98.3872 179.5406v.075c.005-.028.017-.054.017-.083v-.001l-.002-3.622-.017-.003.002 3.634zM97.353 151.5767c-.23 0-.435.065-.615.188.177-.116.375-.178.599-.178.87 0 1.429.866 1.746 2.866.007.003.014.006.02.009-.131-.835-.306-1.472-.526-1.932-.311-.648-.713-.953-1.224-.953" fill="#837E74"/><path d="M141.7085 175.9473h-.779v2.979c0 .031-.003.063-.009.094-.041.198-.172.679-.524.883-.171.099-.369.12-.558.058-.487-.157-32.948-9.694-37.725-11.097l-.143 3.578 18.53 4.877c.246.065.396.313.34.561l-.24 1.063 21.109 3.797c.157-1.95.379-5.126.311-5.924-.028-.325-.105-.869-.312-.869M87.5776 174.7755l-10.296 3.597 15.577-2.803-.086-2.161zM101.9316 173.4083l-.086 2.161 15.569 2.801-10.292-3.596zM74.2012 177.3189l18.533-4.877-.142-3.578c-4.777 1.403-37.239 10.941-37.725 11.098-.192.062-.389.041-.561-.059-.352-.205-.485-.685-.526-.881-.006-.032-.009-.064-.009-.096v-2.979h-.778c-.209 0-.284.608-.306.87-.069.798.152 3.973.309 5.923l21.105-3.796-.24-1.064c-.056-.249.094-.496.34-.561M2.1997 99.524l-1.331.266.076.076 1.255 1.274z" fill="#FFF"/><path d="M54.2676 174.3995c.261 0 .472.211.472.472v3.44l38.167-11.269c.143-.042.297-.015.416.075.119.089.19.229.19.378v.754l.284 7.152 2.545-.458c-.09-.972-.983-10.889-.983-14.003 0-2.041.023-3.893.154-5.404-8.142 3.632-38.139 17.015-42.236 18.863h.991zM163.5723 100.3663l.115 4.152 1.815-.306 16.212-2.74zM185.8281 100.7779l5.558.339v-1.278l-.204.034-5.021.848zM192.3296 99.6793h.001l.42-.071.178-.03-.599-.158zM98.3979 174.9498l2.509.451.286-7.152v-.754c0-.149.07-.289.189-.378.083-.062.183-.094.283-.094.045 0 .09.007.134.02l38.168 11.268v-3.439c0-.261.212-.472.473-.472h.984c-4.08-1.843-34.016-15.2-42.201-18.85.132 1.323.194 3.007.194 5.109 0 3.35-.895 12.979-1.019 14.291" fill="#FFF"/><path d="M84.1182 97.836c-.094-.089-.22-.136-.351-.129l-51.908 2.844.009-.314.01-.359-.944-.028-.013.447-.111 3.87-.011.418.944.026.013-.469.075-2.643 4.413-.242 47.077-2.58V103.218c.003.005.005.011.006.016h.938V98.179c0-.13-.053-.254-.147-.343" fill="#837E74"/><g transform="translate(98 153.769)"><mask id="e" fill="#fff"><use xlink:href="#d"/></mask><path d="M43.71 28.9713l-21.11-3.797.241-1.063c.056-.248-.094-.496-.34-.561L3.97 18.6733l.144-3.578c4.776 1.403 37.237 10.94 37.725 11.097.189.062.386.041.557-.058.352-.204.484-.685.524-.883.006-.031.01-.063.01-.094v-2.979h.779c.206 0 .283.544.311.869.068.799-.153 3.974-.31 5.924zm-22.04-3.964l-2.255-.406-15.57-2.801.087-2.161 5.191 1.366 12.696 3.342-.149.66zm22.832-3.435c.203-.021.371-.171.413-.374.057-.28.003-.892-.607-1.201-.394-.204-31.408-14.042-41.606-18.591-.006-.003-.013-.006-.019-.009-.303-.135-.586-.261-.85-.379-.006-.003-.013-.006-.019-.008-.128-.058-.254-.114-.373-.166-.117-.053-.23-.103-.338-.151-.006-.003-.013-.007-.019-.01.052.335.1.698.139 1.097 8.185 3.651 38.121 17.007 42.201 18.85h-.984c-.261 0-.473.212-.473.472v3.44L3.799 13.2733c-.044-.012-.089-.019-.134-.019-.101 0-.2.032-.283.094-.119.089-.189.229-.189.378v.754l-.286 7.152-2.509-.452c-.006.067-.011.12-.013.141v.817l.017.002 43.652 7.852c.028.005.056.008.084.008.103 0 .204-.034.287-.098.106-.081.172-.202.183-.335.019-.221.454-5.429.353-6.6-.025-.289-.084-.978-.459-1.395z" fill="#837E74" mask="url(#e)"/></g><path d="M77.2813 178.3721l-2.25.405-.149-.661 12.695-3.341 5.195-1.367.086 2.162-15.577 2.802zm-3.42-.493l.24 1.065-21.105 3.796c-.157-1.95-.379-5.125-.309-5.924.022-.261.096-.869.305-.869h.779v2.979c0 .031.003.064.009.095.041.197.174.677.526.882.172.099.369.12.56.058.487-.156 32.949-9.694 37.726-11.097l.142 3.578-18.533 4.877c-.246.065-.396.312-.34.56zm22.48-2.936l-2.544.458-.285-7.152v-.754c0-.149-.07-.289-.189-.378-.12-.089-.273-.117-.417-.075l-38.167 11.269v-3.439c0-.261-.211-.473-.472-.473h-.99c4.096-1.847 34.093-15.231 42.235-18.863.034-.388.075-.75.125-1.09-.084.038-.176.079-.266.119-.198.089-.406.182-.632.282-.27.12-.562.251-.869.388-10.334 4.61-41.079 18.328-41.475 18.529-.618.312-.667.927-.606 1.208.044.201.212.349.413.369-.373.417-.432 1.106-.456 1.395-.101 1.171.333 6.379.352 6.6.011.133.077.254.183.335.105.081.24.113.371.091l43.695-7.86v-.893c-.001-.012-.003-.034-.006-.066zM2.1997 99.524v2.095h.944v-2.67c0-.142-.063-.276-.173-.365-.108-.09-.252-.126-.391-.099l-2.2.439.092.463.093.463.304-.06 1.331-.266zM185.8281 100.7779l-22.713-1.385c-.133-.01-.262.039-.358.132-.054.052-.089.116-.113.186-.019.053-.032.109-.03.166l.018.674-51.91-2.844c-.127-.006-.257.04-.351.129-.094.089-.147.213-.147.343v5.055H111.1261c.014-.034.028-.072.042-.104v-4.453l14.387.789 1.031.056 13.849.759 1.028.057 16.783.919 4.413.242.074 2.642.012.47.944-.026-.002-.066-.115-4.153 18.142 1.107 10.114.617c.002 0 .004-.001.005-.001.131.01.254-.039.348-.126.095-.09.148-.214.148-.344v-2.198l.6.157 1.009.266.12-.457.121-.457-2.201-.578c-.142-.037-.293-.007-.409.082-.116.09-.183.228-.183.374v2.309l-5.558-.339zM107.3901 106.5025h-.343l-.106.326c.063-.194.244-.326.449-.326M104.3315 142.9542c-.092.11-.226.169-.362.169-.075 0-.151-.018-.221-.054-.196-.104-.294-.332-.233-.546l-.39 1.379-.211.749 1.417-1.697zM118.231 131.9488l.126-.275c-.077.168-.244.275-.429.275h.303zM76.0967 131.6734l.126.275h.303c-.184 0-.352-.107-.429-.275M96.3477 179.5406v.472h.472c-.261 0-.472-.211-.472-.472M98.3867 179.5416c0 .26-.211.471-.472.471h.472V179.5416z" fill="#837E74"/><path d="M97.3374 152.5304c-.687 0-1.035 2.83-1.035 8.41 0 3.171.978 13.918.988 14.026l.001 4.102h.151v-4.023c.013-.153 1.03-10.911 1.03-14.386 0-7.543-.869-8.129-1.135-8.129" fill="#FFF"/><path d="M97.4429 175.0455v4.023h-.151l-.002-4.102c-.01-.108-.988-10.856-.988-14.026 0-5.581.349-8.41 1.036-8.41.266 0 1.134.586 1.134 8.129 0 3.475-1.017 14.233-1.029 14.386m.944 4.496v-.001l-.002-3.634v-.816c.002-.022.007-.074.013-.141.124-1.312 1.019-10.941 1.019-14.29 0-2.102-.062-3.786-.194-5.11-.039-.4-.087-.762-.139-1.097-.318-1.999-.877-2.866-1.746-2.866-.225 0-.423.062-.6.179-.205.134-.378.349-.526.626-.265.49-.448 1.19-.575 2.055-.049.339-.091.702-.125 1.09-.131 1.511-.153 3.363-.153 5.404 0 3.114.893 13.031.982 14.003.003.031.006.053.007.066v4.531c0 .261.211.472.472.472h1.095c.26 0 .471-.211.472-.471" fill="#837E74"/></g></svg>